<svg id="svg" version="1.1" xmlns="http://www.w3.org/2000/svg" xmlns:xlink="http://www.w3.org/1999/xlink" width="400" height="100" viewBox="0, 0, 400,100"><g id="svgg"><path id="path0" d="M12.667 16.286 C 12.529 16.337,12.023 16.524,11.543 16.701 C 10.403 17.121,8.956 18.311,8.386 19.298 C 8.137 19.730,7.865 20.130,7.783 20.187 C 6.545 21.043,6.545 78.957,7.783 79.813 C 7.865 79.870,8.137 80.270,8.386 80.702 C 8.957 81.691,10.382 82.861,11.626 83.363 L 12.583 83.750 40.665 83.793 L 68.747 83.836 69.825 83.488 C 71.017 83.103,71.358 82.891,72.594 81.769 C 73.384 81.052,73.627 80.645,74.569 78.475 C 74.973 77.545,74.973 22.455,74.569 21.525 C 73.627 19.355,73.384 18.948,72.594 18.231 C 71.364 17.114,71.030 16.906,69.846 16.517 L 68.778 16.167 40.847 16.180 C 25.486 16.187,12.804 16.235,12.667 16.286 M43.780 27.425 C 55.197 29.120,63.464 38.870,63.558 50.750 L 63.583 53.917 53.292 53.960 L 43.000 54.003 43.000 58.418 L 43.000 62.833 40.417 62.833 L 37.833 62.833 37.833 58.417 L 37.833 54.000 33.500 54.000 L 29.167 54.000 29.167 51.500 L 29.167 49.000 33.500 49.000 L 37.833 49.000 37.833 44.333 L 37.833 39.667 40.417 39.667 L 43.000 39.667 43.000 44.335 L 43.000 49.003 50.708 48.960 L 58.417 48.917 58.368 48.500 C 57.974 45.140,55.948 40.654,53.820 38.430 C 53.463 38.056,53.169 37.703,53.168 37.646 C 53.166 37.493,50.920 35.718,49.917 35.076 C 41.024 29.388,28.767 32.815,25.044 42.033 C 19.941 54.667,26.492 67.902,38.042 68.292 L 40.500 68.375 40.500 70.761 C 40.500 73.561,40.671 73.350,38.319 73.461 C 24.662 74.108,14.623 57.957,19.282 42.833 C 22.681 31.799,32.337 25.726,43.780 27.425 " stroke="none" fill="#158ecf" fill-rule="evenodd"></path><path id="path1" d="M323.944 20.944 C 323.883 21.006,323.833 25.656,323.833 31.278 C 323.833 36.900,323.796 41.500,323.750 41.500 C 323.704 41.500,323.376 41.217,323.020 40.872 C 322.664 40.527,322.158 40.137,321.895 40.006 C 321.632 39.874,321.183 39.598,320.897 39.392 C 317.723 37.100,310.290 37.066,306.662 39.326 C 304.309 40.793,303.448 41.417,302.495 42.351 C 301.427 43.397,300.333 44.811,300.333 45.147 C 300.333 45.240,300.236 45.377,300.117 45.450 C 299.742 45.682,299.204 46.766,298.671 48.367 C 298.387 49.219,298.084 50.045,297.997 50.202 C 297.332 51.401,297.317 57.741,297.977 58.938 C 298.072 59.110,298.304 59.775,298.492 60.417 C 298.681 61.058,298.985 61.829,299.168 62.129 C 299.351 62.429,299.500 62.771,299.500 62.889 C 299.500 63.007,299.636 63.250,299.803 63.429 C 299.969 63.608,300.393 64.203,300.744 64.752 C 301.404 65.785,303.452 67.999,303.748 68.001 C 303.841 68.001,304.199 68.261,304.544 68.578 C 305.157 69.141,307.182 70.205,308.059 70.425 C 308.302 70.486,308.500 70.588,308.500 70.651 C 308.500 71.499,314.338 71.844,317.834 71.203 C 319.092 70.972,321.688 69.628,322.769 68.649 L 323.750 67.760 323.798 69.297 L 323.846 70.833 327.153 70.833 C 330.443 70.833,330.462 70.831,330.562 70.458 C 330.693 69.968,330.693 21.698,330.562 21.208 C 330.461 20.834,324.300 20.589,323.944 20.944 M342.768 21.202 C 342.503 21.298,342.166 21.474,342.018 21.593 C 340.858 22.531,340.616 22.780,340.346 23.313 C 338.993 25.981,340.709 29.429,343.630 29.913 C 347.804 30.604,350.567 24.722,347.299 22.102 C 346.997 21.860,346.658 21.587,346.546 21.495 C 345.933 20.994,343.795 20.828,342.768 21.202 M358.041 45.875 L 358.083 70.750 361.500 70.750 L 364.917 70.750 365.000 65.613 L 365.083 60.476 366.622 58.981 C 368.395 57.258,368.461 57.252,369.410 58.719 C 369.718 59.194,370.220 59.857,370.527 60.192 C 370.833 60.527,371.346 61.159,371.667 61.597 C 371.988 62.034,372.325 62.474,372.417 62.573 C 372.508 62.672,372.954 63.240,373.408 63.835 C 373.861 64.430,374.403 65.094,374.613 65.311 C 374.822 65.528,375.251 66.090,375.565 66.561 C 375.880 67.032,376.406 67.675,376.735 67.991 C 377.064 68.307,377.336 68.644,377.338 68.741 C 377.341 68.838,377.740 69.348,378.224 69.875 L 379.104 70.833 383.201 70.833 C 387.778 70.833,387.895 70.802,387.022 69.792 C 386.493 69.179,386.557 69.260,384.534 66.667 C 383.711 65.612,382.776 64.450,382.456 64.083 C 382.136 63.717,381.673 63.117,381.427 62.750 C 381.181 62.383,380.717 61.783,380.396 61.417 C 379.804 60.740,379.439 60.277,377.669 57.954 C 377.126 57.241,376.584 56.560,376.466 56.441 C 376.347 56.323,375.988 55.867,375.667 55.430 C 375.346 54.992,374.796 54.323,374.446 53.942 C 373.269 52.666,373.277 52.620,374.949 51.067 C 375.756 50.317,377.216 48.926,378.193 47.976 C 379.169 47.027,380.959 45.313,382.170 44.167 C 385.764 40.767,388.000 38.537,388.000 38.354 C 388.000 38.040,386.959 37.978,382.620 38.031 L 378.322 38.083 377.355 39.083 C 376.823 39.633,375.426 40.983,374.250 42.083 C 373.074 43.183,371.297 44.871,370.301 45.833 C 367.254 48.777,365.528 50.388,365.258 50.539 C 365.026 50.669,365.000 49.184,365.000 35.842 L 365.000 21.000 361.499 21.000 L 357.999 21.000 358.041 45.875 M38.083 27.338 C 28.693 28.204,21.207 34.869,19.087 44.251 C 15.717 59.163,24.651 73.231,37.500 73.247 C 40.571 73.251,40.333 73.463,40.333 70.714 L 40.333 68.417 38.125 68.394 C 27.177 68.284,20.337 56.085,24.260 43.667 C 29.779 26.197,56.115 29.602,58.424 48.084 L 58.538 49.000 50.769 49.000 L 43.000 49.000 42.982 48.625 C 42.972 48.419,42.954 46.375,42.941 44.083 L 42.917 39.917 40.458 39.871 L 38.000 39.824 38.000 44.412 L 38.000 49.000 33.667 49.000 L 29.333 49.000 29.333 51.417 L 29.333 53.833 33.667 53.833 L 38.000 53.833 38.000 58.333 L 38.000 62.833 40.417 62.833 L 42.833 62.833 42.840 61.875 C 42.844 61.348,42.854 59.417,42.863 57.583 C 42.872 55.750,42.915 54.156,42.958 54.042 C 43.019 53.878,45.239 53.833,53.290 53.833 L 63.545 53.833 63.453 50.875 C 63.091 39.259,56.372 30.685,45.450 27.906 C 42.905 27.258,40.750 27.092,38.083 27.338 M101.833 37.778 C 96.458 38.623,91.461 43.162,89.598 48.892 C 88.615 51.917,88.563 56.686,89.480 59.820 C 89.759 60.775,90.053 61.600,90.133 61.653 C 90.213 61.706,90.361 61.991,90.462 62.286 C 90.892 63.542,93.680 67.493,94.142 67.502 C 94.202 67.503,94.552 67.784,94.921 68.127 C 95.524 68.687,97.717 70.167,97.944 70.167 C 97.994 70.167,98.383 70.340,98.809 70.552 C 101.468 71.877,108.718 71.984,109.654 70.712 C 109.707 70.640,110.050 70.477,110.417 70.349 C 111.128 70.102,112.867 69.094,113.491 68.568 C 114.793 67.471,116.812 65.296,117.152 64.625 C 117.372 64.190,117.609 63.833,117.678 63.833 C 117.849 63.833,118.500 62.465,118.500 62.105 C 118.500 61.916,118.224 61.700,117.708 61.486 C 117.273 61.305,116.561 60.968,116.126 60.736 C 114.195 59.708,112.167 59.058,112.167 59.468 C 112.167 60.471,108.727 63.611,107.032 64.156 C 102.217 65.705,96.243 61.838,96.169 57.125 C 96.168 57.056,101.422 57.000,107.844 57.000 C 115.575 57.000,119.631 56.942,119.844 56.827 C 120.387 56.537,120.253 51.654,119.664 50.250 C 119.587 50.067,119.358 49.392,119.155 48.750 C 118.685 47.262,117.832 45.333,117.644 45.333 C 117.565 45.333,117.500 45.253,117.500 45.155 C 117.500 44.394,114.107 40.876,112.529 40.000 C 111.950 39.679,111.369 39.317,111.238 39.196 C 110.065 38.112,104.775 37.315,101.833 37.778 M272.702 37.915 C 269.476 38.530,265.030 41.760,263.334 44.721 C 263.090 45.145,262.777 45.626,262.637 45.788 C 262.273 46.211,261.220 48.948,261.080 49.833 C 261.015 50.246,260.898 50.664,260.819 50.762 C 260.389 51.296,260.381 57.854,260.810 58.397 C 260.890 58.500,261.010 58.883,261.076 59.250 C 261.281 60.397,262.337 63.004,262.931 63.831 C 263.244 64.267,263.500 64.704,263.500 64.803 C 263.500 64.902,263.875 65.380,264.333 65.866 C 264.792 66.352,265.167 66.802,265.167 66.867 C 265.167 67.317,269.851 70.488,270.528 70.497 C 270.681 70.498,270.831 70.576,270.861 70.668 C 271.249 71.830,281.500 71.818,281.500 70.656 C 281.500 70.584,281.781 70.436,282.125 70.326 C 284.079 69.699,287.437 66.896,288.803 64.750 C 290.535 62.029,290.544 61.939,289.120 61.333 C 288.641 61.129,287.650 60.673,286.917 60.321 C 284.111 58.972,283.949 58.978,283.187 60.451 C 282.637 61.516,280.933 63.111,279.617 63.792 L 278.417 64.414 276.167 64.415 C 273.999 64.417,273.877 64.398,272.833 63.904 C 271.685 63.360,269.167 61.085,269.167 60.591 C 269.167 60.449,269.027 60.194,268.857 60.024 C 268.597 59.764,267.667 57.432,267.667 57.040 C 267.667 56.972,272.957 56.936,279.423 56.961 C 287.849 56.992,291.279 56.952,291.529 56.818 C 291.865 56.638,291.874 56.545,291.785 54.107 C 291.389 43.251,282.828 35.987,272.702 37.915 M127.288 38.116 C 127.016 38.186,126.997 38.456,127.038 41.555 L 127.083 44.917 135.292 44.960 C 139.806 44.984,143.500 45.063,143.500 45.137 C 143.500 45.211,143.284 45.478,143.020 45.731 C 142.756 45.984,142.375 46.511,142.174 46.902 C 141.973 47.294,141.641 47.795,141.437 48.015 C 141.232 48.236,140.661 49.017,140.166 49.750 C 139.672 50.483,139.125 51.233,138.950 51.417 C 138.776 51.600,138.418 52.125,138.155 52.583 C 137.892 53.042,137.413 53.717,137.092 54.083 C 136.770 54.450,136.505 54.815,136.503 54.894 C 136.499 55.062,135.502 56.467,134.743 57.373 C 134.456 57.716,134.047 58.335,133.834 58.748 C 133.622 59.162,133.385 59.500,133.308 59.500 C 133.231 59.500,132.758 60.119,132.256 60.875 C 130.810 63.053,129.527 64.895,129.262 65.172 C 129.129 65.312,128.658 65.958,128.218 66.607 C 127.777 67.256,127.023 68.357,126.542 69.053 C 126.060 69.749,125.667 70.435,125.667 70.577 C 125.667 70.809,127.238 70.831,140.958 70.793 L 156.250 70.750 156.297 67.667 C 156.323 65.971,156.303 64.415,156.253 64.210 L 156.161 63.836 147.467 63.793 C 139.742 63.755,138.801 63.722,139.020 63.500 C 139.276 63.240,140.446 61.555,140.768 60.983 C 140.870 60.802,141.106 60.488,141.292 60.285 C 141.478 60.083,141.910 59.467,142.252 58.917 C 142.594 58.367,142.962 57.842,143.069 57.750 C 143.176 57.658,143.504 57.227,143.798 56.792 C 144.326 56.011,144.528 55.725,146.185 53.417 C 146.645 52.775,147.291 51.837,147.620 51.333 C 147.949 50.829,148.450 50.122,148.734 49.762 C 149.018 49.403,149.646 48.540,150.130 47.846 C 151.851 45.377,154.135 42.152,155.350 40.475 C 156.586 38.769,156.794 38.349,156.498 38.162 C 156.251 38.006,127.884 37.960,127.288 38.116 M160.444 38.111 C 160.235 38.320,160.334 38.705,160.902 39.893 C 161.215 40.548,161.711 41.681,162.005 42.411 C 162.299 43.142,162.638 43.892,162.758 44.078 C 162.878 44.264,163.287 45.204,163.667 46.167 C 164.047 47.129,164.456 48.069,164.575 48.255 C 164.695 48.442,165.030 49.192,165.320 49.922 C 165.610 50.652,166.062 51.700,166.326 52.250 C 167.012 53.679,167.504 54.802,167.755 55.513 C 167.874 55.852,168.272 56.757,168.638 57.523 C 169.004 58.290,169.543 59.517,169.836 60.250 C 170.130 60.983,170.458 61.696,170.566 61.833 C 170.675 61.971,171.006 62.721,171.303 63.500 C 171.599 64.279,172.058 65.367,172.321 65.917 C 173.916 69.241,174.374 70.610,174.098 71.220 C 173.602 72.318,172.833 74.250,172.833 74.400 C 172.833 74.487,172.728 74.675,172.600 74.820 C 172.472 74.965,172.013 75.946,171.581 77.000 C 171.148 78.054,170.658 79.179,170.491 79.500 C 170.063 80.321,169.333 81.984,169.333 82.137 C 169.333 82.207,169.028 82.879,168.655 83.630 C 168.282 84.380,168.024 85.071,168.082 85.164 C 168.246 85.430,175.666 85.392,175.670 85.125 C 175.672 85.010,175.899 84.467,176.173 83.917 C 176.447 83.367,176.902 82.354,177.184 81.667 C 177.466 80.979,177.987 79.809,178.341 79.067 C 178.695 78.324,179.142 77.312,179.333 76.817 C 179.791 75.633,180.121 74.880,180.491 74.167 C 180.658 73.846,181.075 72.871,181.417 72.000 C 181.759 71.129,182.169 70.192,182.329 69.917 C 182.489 69.642,182.944 68.592,183.339 67.583 C 183.735 66.575,184.158 65.632,184.279 65.487 C 184.401 65.342,184.500 65.167,184.500 65.097 C 184.500 65.028,184.725 64.484,185.000 63.890 C 185.275 63.296,185.500 62.737,185.500 62.648 C 185.500 62.558,185.866 61.720,186.313 60.784 C 186.760 59.849,187.339 58.521,187.599 57.833 C 187.859 57.146,188.125 56.545,188.189 56.499 C 188.253 56.452,188.696 55.440,189.174 54.249 C 189.652 53.058,190.137 51.971,190.252 51.833 C 190.367 51.696,190.517 51.396,190.587 51.167 C 190.656 50.938,190.890 50.361,191.106 49.886 C 191.323 49.410,191.500 48.975,191.500 48.918 C 191.500 48.861,191.825 48.125,192.222 47.282 C 192.619 46.439,193.196 45.112,193.503 44.333 C 193.810 43.554,194.118 42.878,194.187 42.830 C 194.301 42.751,195.012 41.053,195.614 39.418 C 195.749 39.052,195.943 38.653,196.044 38.530 C 196.182 38.364,196.168 38.270,195.989 38.157 C 195.705 37.977,188.993 37.950,188.747 38.128 C 188.585 38.245,187.500 40.388,187.500 40.591 C 187.500 40.644,187.323 41.077,187.106 41.552 C 186.890 42.028,186.656 42.604,186.587 42.833 C 186.517 43.063,186.369 43.362,186.258 43.500 C 186.008 43.809,184.667 46.948,184.667 47.225 C 184.667 47.335,184.536 47.611,184.376 47.838 C 184.084 48.251,183.620 49.291,182.966 51.000 C 182.772 51.504,182.413 52.292,182.167 52.750 C 181.920 53.208,181.552 54.033,181.348 54.583 C 181.144 55.133,180.687 56.183,180.333 56.917 C 179.695 58.239,178.789 60.418,178.590 61.110 C 178.421 61.701,178.053 61.703,177.829 61.114 C 177.224 59.523,176.611 58.061,176.483 57.902 C 176.403 57.803,176.227 57.407,176.092 57.024 C 175.956 56.640,175.734 56.084,175.597 55.788 C 175.460 55.492,175.189 54.838,174.994 54.334 C 174.799 53.830,174.572 53.336,174.489 53.237 C 174.407 53.138,174.145 52.538,173.906 51.904 C 173.516 50.866,172.003 47.234,171.402 45.891 C 171.272 45.603,171.167 45.315,171.167 45.252 C 171.167 45.189,170.948 44.676,170.681 44.111 C 170.153 42.995,169.833 42.240,169.506 41.333 C 169.390 41.012,169.003 40.131,168.646 39.375 L 167.997 38.000 164.276 38.000 C 162.230 38.000,160.506 38.050,160.444 38.111 M214.000 38.249 C 212.733 38.532,211.327 38.966,211.104 39.142 C 211.001 39.223,210.485 39.448,209.958 39.642 L 209.000 39.995 209.000 39.164 L 209.000 38.333 205.603 38.333 C 202.221 38.333,202.205 38.335,202.105 38.708 C 201.974 39.198,201.974 69.968,202.105 70.458 C 202.205 70.832,202.221 70.833,205.597 70.833 L 208.988 70.833 209.036 60.042 C 209.080 50.197,209.110 49.185,209.378 48.514 C 209.761 47.554,210.711 46.406,211.383 46.092 C 212.361 45.634,213.369 45.333,213.928 45.333 C 214.232 45.333,214.520 45.269,214.568 45.191 C 214.703 44.973,217.486 44.831,218.333 44.999 C 220.145 45.358,220.666 45.504,221.515 45.895 C 222.566 46.378,223.526 47.306,223.950 48.250 C 224.226 48.863,224.257 49.798,224.340 59.833 C 224.389 65.837,224.445 70.769,224.465 70.792 C 224.484 70.815,225.988 70.833,227.807 70.833 L 231.113 70.833 231.307 70.409 C 231.447 70.101,231.500 67.141,231.500 59.665 C 231.500 48.236,231.483 48.430,232.583 47.078 C 233.227 46.287,234.752 45.485,235.832 45.370 C 236.245 45.326,236.685 45.209,236.809 45.110 C 237.109 44.871,240.996 44.862,241.516 45.099 C 241.737 45.199,242.325 45.414,242.824 45.576 C 243.323 45.738,244.015 46.049,244.362 46.268 C 244.709 46.487,245.051 46.667,245.122 46.667 C 245.241 46.667,245.830 47.542,246.355 48.500 C 246.539 48.836,246.599 51.025,246.667 59.833 L 246.750 70.750 250.121 70.795 L 253.492 70.840 253.592 70.442 C 253.813 69.562,253.572 47.943,253.334 47.333 C 252.306 44.691,251.694 43.594,250.550 42.347 C 249.274 40.955,248.180 40.123,246.974 39.630 C 246.484 39.430,246.041 39.205,245.989 39.131 C 245.881 38.977,244.072 38.480,242.573 38.193 C 239.854 37.673,232.167 38.368,232.167 39.134 C 232.167 39.201,231.810 39.382,231.375 39.538 C 230.462 39.865,229.035 40.753,228.395 41.393 C 227.834 41.954,227.857 41.958,226.986 41.153 C 226.261 40.483,224.211 39.333,223.741 39.333 C 223.608 39.333,223.500 39.261,223.500 39.173 C 223.500 38.381,216.467 37.696,214.000 38.249 M341.125 38.115 C 340.850 38.187,340.833 39.109,340.833 54.516 L 340.833 70.840 344.292 70.795 L 347.750 70.750 347.792 54.478 L 347.835 38.206 347.459 38.105 C 347.031 37.991,341.569 37.999,341.125 38.115 M106.416 44.776 C 107.177 45.035,108.526 45.737,109.525 46.393 C 110.014 46.714,111.637 48.778,112.067 49.625 L 112.342 50.167 104.502 50.167 L 96.662 50.167 96.918 49.554 C 97.219 48.834,97.260 48.778,98.643 47.208 C 99.228 46.544,99.781 46.000,99.871 46.000 C 99.961 46.000,100.365 45.777,100.769 45.505 C 102.227 44.521,104.723 44.199,106.416 44.776 M278.001 44.750 C 280.761 45.724,283.820 48.457,283.832 49.958 C 283.833 50.122,282.173 50.167,276.083 50.167 C 271.821 50.167,268.333 50.109,268.333 50.038 C 268.333 49.924,268.984 48.918,270.029 47.417 C 271.501 45.301,275.639 43.917,278.001 44.750 M317.433 45.179 C 320.470 46.624,322.599 49.078,323.187 51.813 C 323.298 52.328,323.455 52.837,323.536 52.944 C 323.750 53.225,323.735 55.728,323.517 56.134 C 323.416 56.323,323.333 56.630,323.333 56.817 C 323.333 58.593,321.147 61.861,319.060 63.204 C 315.281 65.634,308.417 64.335,306.586 60.845 C 306.463 60.609,306.195 60.240,305.991 60.024 C 304.391 58.327,304.078 52.756,305.436 50.129 C 306.566 47.944,309.238 45.333,310.344 45.333 C 310.521 45.333,310.667 45.267,310.667 45.186 C 310.667 44.839,312.817 44.513,314.683 44.578 C 316.083 44.626,316.428 44.701,317.433 45.179 " stroke="none" fill="#fbfbfc" fill-rule="evenodd"></path><path id="path2" d="M24.073 34.208 L 23.583 34.750 24.125 34.260 C 24.630 33.804,24.743 33.667,24.615 33.667 C 24.586 33.667,24.342 33.910,24.073 34.208 M62.096 43.000 C 62.157 43.229,62.276 43.529,62.361 43.667 C 62.469 43.840,62.482 43.790,62.404 43.500 C 62.343 43.271,62.224 42.971,62.139 42.833 C 62.031 42.660,62.018 42.710,62.096 43.000 M23.205 49.333 C 23.205 49.654,23.240 49.785,23.282 49.625 C 23.323 49.465,23.323 49.202,23.282 49.042 C 23.240 48.881,23.205 49.012,23.205 49.333 M29.233 51.417 C 29.234 52.792,29.259 53.332,29.291 52.617 C 29.322 51.903,29.322 50.778,29.290 50.117 C 29.259 49.457,29.233 50.042,29.233 51.417 M18.224 50.750 C 18.224 51.483,18.254 51.763,18.289 51.371 C 18.324 50.979,18.324 50.379,18.288 50.037 C 18.252 49.696,18.223 50.017,18.224 50.750 M42.879 55.833 C 42.879 56.246,42.911 56.415,42.951 56.208 C 42.991 56.002,42.991 55.665,42.951 55.458 C 42.911 55.252,42.879 55.421,42.879 55.833 M42.881 57.917 C 42.882 58.375,42.915 58.543,42.953 58.289 C 42.991 58.036,42.990 57.661,42.951 57.456 C 42.911 57.251,42.880 57.458,42.881 57.917 M42.885 59.750 C 42.886 60.300,42.917 60.505,42.954 60.205 C 42.991 59.906,42.990 59.456,42.952 59.205 C 42.914 58.955,42.884 59.200,42.885 59.750 M42.887 61.833 C 42.887 62.429,42.917 62.673,42.954 62.375 C 42.991 62.077,42.991 61.590,42.954 61.292 C 42.917 60.994,42.887 61.237,42.887 61.833 M28.493 64.542 C 28.902 64.977,29.258 65.333,29.285 65.333 C 29.410 65.333,29.278 65.184,28.542 64.493 L 27.750 63.750 28.493 64.542 M23.667 66.552 C 23.667 66.581,23.910 66.825,24.208 67.094 L 24.750 67.583 24.260 67.042 C 23.804 66.537,23.667 66.423,23.667 66.552 " stroke="none" fill="#c7e5f4" fill-rule="evenodd"></path><path id="path3" d="M39.216 39.791 C 39.931 39.822,41.056 39.822,41.716 39.790 C 42.376 39.759,41.792 39.733,40.417 39.733 C 39.042 39.734,38.501 39.759,39.216 39.791 M37.906 44.500 C 37.906 47.021,37.930 48.052,37.958 46.792 C 37.986 45.531,37.986 43.469,37.958 42.208 C 37.930 40.948,37.906 41.979,37.906 44.500 M18.372 47.667 C 18.372 47.987,18.406 48.119,18.448 47.958 C 18.490 47.798,18.490 47.535,18.448 47.375 C 18.406 47.215,18.372 47.346,18.372 47.667 M23.205 51.333 C 23.205 51.654,23.240 51.785,23.282 51.625 C 23.323 51.465,23.323 51.202,23.282 51.042 C 23.240 50.881,23.205 51.012,23.205 51.333 M33.539 53.957 L 37.828 54.006 37.877 58.378 L 37.925 62.750 37.921 58.333 L 37.917 53.917 33.583 53.912 L 29.250 53.908 33.539 53.957 M48.137 53.958 C 51.008 53.984,55.658 53.984,58.470 53.958 C 61.282 53.933,58.933 53.912,53.250 53.912 C 47.567 53.912,45.266 53.933,48.137 53.958 " stroke="none" fill="#9cd1ed" fill-rule="evenodd"></path><path id="path4" d="M31.542 28.748 C 31.244 28.878,31.000 29.021,31.000 29.067 C 31.000 29.147,32.179 28.699,32.319 28.566 C 32.465 28.428,32.061 28.523,31.542 28.748 M24.833 33.250 C 24.150 33.938,23.629 34.500,23.675 34.500 C 23.721 34.500,24.317 33.938,25.000 33.250 C 25.683 32.563,26.204 32.000,26.158 32.000 C 26.112 32.000,25.516 32.563,24.833 33.250 M39.464 32.290 C 39.948 32.324,40.698 32.323,41.131 32.289 C 41.563 32.255,41.167 32.227,40.250 32.228 C 39.333 32.228,38.980 32.256,39.464 32.290 M57.167 34.583 C 57.478 34.904,57.770 35.167,57.815 35.167 C 57.861 35.167,57.644 34.904,57.333 34.583 C 57.022 34.262,56.730 34.000,56.685 34.000 C 56.639 34.000,56.856 34.262,57.167 34.583 M28.333 36.917 C 27.928 37.329,27.635 37.667,27.681 37.667 C 27.726 37.667,28.095 37.329,28.500 36.917 C 28.905 36.504,29.199 36.167,29.153 36.167 C 29.107 36.167,28.738 36.504,28.333 36.917 M20.742 38.849 C 20.595 39.132,20.505 39.394,20.541 39.430 C 20.577 39.466,20.732 39.234,20.884 38.915 C 21.227 38.196,21.108 38.141,20.742 38.849 M23.929 44.929 C 23.867 45.173,23.849 45.405,23.889 45.444 C 23.928 45.483,24.010 45.316,24.071 45.071 C 24.133 44.827,24.151 44.595,24.111 44.556 C 24.072 44.517,23.990 44.684,23.929 44.929 M63.375 47.917 C 63.377 48.283,63.411 48.414,63.451 48.206 C 63.491 47.999,63.490 47.699,63.448 47.540 C 63.406 47.380,63.374 47.550,63.375 47.917 M63.567 51.333 C 63.567 52.754,63.593 53.335,63.624 52.625 C 63.655 51.915,63.655 50.752,63.624 50.042 C 63.593 49.331,63.567 49.913,63.567 51.333 M20.333 61.229 C 20.333 61.409,20.995 62.667,21.090 62.667 C 21.136 62.667,21.013 62.348,20.816 61.958 C 20.430 61.192,20.333 61.046,20.333 61.229 M28.493 64.375 C 28.902 64.810,29.258 65.167,29.285 65.167 C 29.410 65.167,29.278 65.017,28.542 64.326 L 27.750 63.583 28.493 64.375 M34.083 67.833 C 34.267 67.912,34.529 67.977,34.667 67.977 C 34.824 67.977,34.793 67.924,34.583 67.833 C 34.400 67.755,34.137 67.690,34.000 67.690 C 33.842 67.690,33.873 67.743,34.083 67.833 M38.044 68.453 C 38.297 68.491,38.672 68.490,38.877 68.451 C 39.082 68.411,38.875 68.380,38.417 68.381 C 37.958 68.382,37.791 68.415,38.044 68.453 M40.370 70.697 L 40.333 73.145 39.875 73.214 L 39.417 73.283 39.880 73.308 C 40.500 73.342,40.518 73.258,40.458 70.575 L 40.406 68.250 40.370 70.697 M36.542 73.456 C 37.069 73.490,37.931 73.490,38.458 73.456 C 38.985 73.423,38.554 73.396,37.500 73.396 C 36.446 73.396,36.015 73.423,36.542 73.456 " stroke="none" fill="#84c4e4" fill-rule="evenodd"></path></g></svg>